<?xml version="1.0" standalone="no"?>
<!DOCTYPE svg PUBLIC "-//W3C//DTD SVG 20010904//EN"
 "http://www.w3.org/TR/2001/REC-SVG-20010904/DTD/svg10.dtd">
<svg version="1.0" xmlns="http://www.w3.org/2000/svg"
 width="700.000000pt" height="700.000000pt" viewBox="0 0 700.000000 700.000000"
 preserveAspectRatio="xMidYMid meet">
<metadata>
Created by potrace 1.14, written by Peter Selinger 2001-2017
</metadata>
<g transform="translate(0.000000,700.000000) scale(0.100000,-0.100000)"
fill="#000000" stroke="none">
<path d="M3329 6996 c-2 -2 -31 -7 -64 -10 -33 -4 -71 -9 -85 -11 -14 -3 -43
-7 -65 -10 -139 -16 -354 -84 -520 -165 -414 -202 -669 -504 -744 -880 -27
-140 -35 -220 -35 -395 0 -128 10 -347 18 -391 14 -78 28 -214 24 -225 -3 -8
-27 -20 -54 -27 -36 -10 -61 -26 -96 -62 -55 -57 -62 -88 -61 -255 3 -215 64
-363 227 -544 36 -40 66 -77 66 -82 0 -14 200 -381 261 -477 166 -265 363
-472 584 -615 364 -234 741 -282 1140 -144 206 72 367 177 540 352 203 206
295 334 490 685 60 107 129 221 154 254 25 32 58 75 73 95 52 69 108 176 134
256 23 70 27 97 28 220 1 155 -10 206 -51 255 -28 33 -52 47 -118 64 -46 13
-46 9 -27 161 20 159 21 165 28 270 24 374 -12 642 -118 863 -171 360 -535
629 -1013 751 -94 24 -109 26 -280 52 -115 17 -422 28 -436 15z m-547 -1017
c11 -6 80 -58 152 -116 145 -116 313 -230 421 -285 280 -144 586 -232 945
-273 30 -3 66 -8 80 -10 14 -2 54 -6 90 -10 36 -4 77 -9 93 -10 49 -6 170 -16
246 -20 40 -2 78 -8 84 -14 6 -6 6 -38 -2 -98 -6 -48 -13 -108 -17 -133 -3
-25 -12 -81 -19 -125 -8 -44 -17 -93 -20 -110 -2 -16 -7 -41 -10 -55 -3 -14
-7 -38 -10 -55 -2 -16 -8 -51 -13 -77 -5 -26 -5 -45 -1 -42 5 3 9 9 9 13 0 5
18 40 41 79 82 141 139 181 200 139 49 -33 73 -89 77 -177 7 -142 -42 -266
-173 -442 -46 -61 -111 -167 -150 -241 -202 -394 -321 -577 -477 -737 -135
-138 -260 -222 -412 -274 -144 -50 -193 -56 -436 -51 -124 2 -241 7 -260 10
-115 21 -297 97 -374 157 -84 65 -167 142 -221 202 -60 68 -182 234 -220 297
-47 81 -89 158 -156 287 -122 233 -146 274 -214 357 -138 168 -190 331 -162
507 9 50 49 102 93 119 54 20 121 -46 203 -201 13 -25 26 -47 28 -50 6 -6 -5
78 -11 88 -2 4 -7 29 -10 56 -4 27 -9 52 -11 56 -2 3 -6 26 -10 50 -3 25 -8
52 -10 60 -2 8 -6 29 -9 45 -11 73 -19 121 -22 139 -18 95 -22 310 -8 378 19
95 87 203 206 329 116 122 208 180 358 225 89 27 86 27 112 13z"/>
<path d="M3265 2400 c-8 -3 -61 -49 -119 -103 -76 -72 -104 -104 -101 -118 9
-46 123 -179 219 -256 39 -31 76 -63 82 -70 9 -11 -7 -58 -72 -211 -47 -108
-89 -206 -94 -217 -5 -11 -30 -69 -55 -130 -26 -60 -52 -123 -60 -140 -13 -29
-19 -57 -16 -82 2 -25 120 -157 216 -243 59 -53 218 -170 231 -170 15 0 159
108 235 177 121 110 219 224 219 255 0 11 -67 176 -149 366 -82 191 -150 354
-151 362 -4 30 1 40 42 77 145 131 258 258 258 288 0 28 -199 214 -230 216
-81 4 -443 3 -455 -1z"/>
<path d="M2309 2395 c-2 -2 -234 -69 -514 -150 -694 -199 -790 -229 -935 -287
-338 -137 -558 -298 -642 -468 -81 -166 -144 -374 -168 -560 -6 -47 -13 -96
-15 -110 -9 -60 -23 -344 -30 -612 l-6 -208 3501 0 3501 0 -6 183 c-12 393
-20 559 -31 641 -3 23 -7 57 -9 76 -12 98 -34 201 -74 342 -78 277 -204 438
-451 577 -211 120 -384 185 -840 317 -179 52 -347 101 -375 109 -27 8 -59 17
-70 20 -11 3 -42 11 -70 19 -226 66 -344 99 -366 103 l-26 5 -1 -209 c0 -114
-3 -221 -6 -238 -19 -108 -28 -143 -52 -203 -135 -341 -427 -740 -765 -1043
-146 -131 -314 -249 -354 -249 -33 0 -81 28 -190 109 -33 25 -62 48 -65 51 -3
3 -27 23 -55 45 -216 172 -454 443 -611 698 -227 366 -276 522 -269 845 3 95
7 177 10 182 5 9 -9 23 -16 15z"/>
</g>
</svg>
